<?xml version="1.0" encoding="UTF-8" standalone="no"?>
<!-- Created with Inkscape (http://www.inkscape.org/) -->

<svg
   width="8.4666672mm"
   height="8.4666672mm"
   viewBox="0 0 8.4666669 8.466667"
   version="1.1"
   id="svg5"
   inkscape:version="1.2.1 (9c6d41e410, 2022-07-14, custom)"
   sodipodi:docname="add.svg"
   xmlns:inkscape="http://www.inkscape.org/namespaces/inkscape"
   xmlns:sodipodi="http://sodipodi.sourceforge.net/DTD/sodipodi-0.dtd"
   xmlns="http://www.w3.org/2000/svg"
   xmlns:svg="http://www.w3.org/2000/svg">
  <sodipodi:namedview
     id="namedview7"
     pagecolor="#ffffff"
     bordercolor="#666666"
     borderopacity="1.0"
     inkscape:pageshadow="2"
     inkscape:pageopacity="0"
     inkscape:pagecheckerboard="true"
     inkscape:document-units="mm"
     showgrid="false"
     inkscape:zoom="14.7554"
     inkscape:cx="8.5731328"
     inkscape:cy="16.061917"
     inkscape:window-width="1792"
     inkscape:window-height="1053"
     inkscape:window-x="0"
     inkscape:window-y="0"
     inkscape:window-maximized="0"
     inkscape:current-layer="layer1"
     inkscape:showpageshadow="2"
     inkscape:deskcolor="#d1d1d1" />
  <defs
     id="defs2" />
  <g
     inkscape:label="Layer 1"
     inkscape:groupmode="layer"
     id="layer1"
     transform="translate(-60.731845,-68.433726)">
    <path
       id="rect176"
       style="fill:#000000;fill-opacity:1;stroke:none;stroke-width:0.195675;stroke-dasharray:none;stroke-opacity:1"
       d="m 64.965209,68.433726 c -0.447397,0 -0.807603,0.375818 -0.807603,0.84265 v 2.548064 h -2.583111 c -0.466832,0 -0.84265,0.375818 -0.84265,0.84265 0,0.466831 0.375818,0.84265 0.84265,0.84265 h 2.583111 v 2.548002 c 0,0.466833 0.360206,0.842651 0.807603,0.842651 0.447397,0 0.807542,-0.375818 0.807542,-0.842651 V 73.50974 h 2.58311 c 0.466833,0 0.842651,-0.375819 0.842651,-0.84265 0,-0.466832 -0.375818,-0.84265 -0.842651,-0.84265 h -2.58311 v -2.548064 c 0,-0.466832 -0.360145,-0.84265 -0.807542,-0.84265 z" />
  </g>
</svg>
