<?xml version="1.0" encoding="UTF-8" standalone="no"?>
<svg
   height="26.684"
   width="15.999969"
   version="1.1"
   id="svg4"
   sodipodi:docname="energy.svg"
   inkscape:version="1.2.1 (9c6d41e410, 2022-07-14, custom)"
   xmlns:inkscape="http://www.inkscape.org/namespaces/inkscape"
   xmlns:sodipodi="http://sodipodi.sourceforge.net/DTD/sodipodi-0.dtd"
   xmlns="http://www.w3.org/2000/svg"
   xmlns:svg="http://www.w3.org/2000/svg">
  <defs
     id="defs8" />
  <sodipodi:namedview
     id="namedview6"
     pagecolor="#ffffff"
     bordercolor="#666666"
     borderopacity="1.0"
     inkscape:showpageshadow="2"
     inkscape:pageopacity="0.0"
     inkscape:pagecheckerboard="true"
     inkscape:deskcolor="#d1d1d1"
     showgrid="false"
     inkscape:zoom="20.149036"
     inkscape:cx="2.2581725"
     inkscape:cy="14.392748"
     inkscape:window-width="1920"
     inkscape:window-height="1055"
     inkscape:window-x="0"
     inkscape:window-y="0"
     inkscape:window-maximized="1"
     inkscape:current-layer="path2" />
  <g
     id="path2"
     transform="translate(0.4969643,0.41931355)">
    <path
       style="color:#000000;fill:#ffea44;stroke-width:0.699526;stroke-linecap:round;stroke-linejoin:round;-inkscape-stroke:none"
       d="M 4.6359465,25.520579 6.0706717,15.652466 H 0.961649 q -0.3849265,0 -0.55989264,-0.349933 -0.17496708,-0.349933 0,-0.664872 L 8.9751163,0.32539838 H 10.409841 L 8.9751163,10.158517 h 5.0390357 q 0.384927,0 0.577389,0.349934 0.192464,0.349933 0.01749,0.664872 L 6.0706717,25.520579 Z"
       id="path7503" />
    <path
       style="color:#000000;fill:#ffffff;stroke-width:0.941488;stroke-linecap:round;stroke-linejoin:round"
       d="M 9.2205665,-0.16294405 C 9.0968779,-0.16326697 8.9822144,-0.09824442 8.9189961,0.00806843 L 0.34840457,14.287172 c -0.001886,0.003 -0.003725,0.0061 -0.005516,0.0092 -0.16738928,0.301299 -0.55302761,1.024253 -0.39675735,1.336793 0.1625267,0.325055 0.54872631,0.401335 0.89328465,0.403242 l 4.76015713,0.02635 -1.0622818,9.237216 c -0.029912,0.21041 0.1331771,0.398656 0.3457026,0.399029 h 1.4342983 c 0.1236884,3.23e-4 0.2383519,-0.0647 0.3015704,-0.171012 L 15.156615,11.181364 c 0.0019,-0.003 0.0038,-0.0061 0.0056,-0.0092 0.169796,-0.305625 0.154681,-0.692681 -0.01655,-1.004008 C 14.969859,9.8485663 14.62374,9.6385419 14.261135,9.6385419 l -4.8465036,0.15006 1.2925676,-9.66555951 c 0.03115,-0.21109484 -0.09136,-0.2793058 -0.30474,-0.27951772 z M 9.8030699,0.26869872 10.139548,0.3281413 C 9.7393948,3.4276728 8.7416048,9.7246439 8.6459011,10.374907 c -0.095704,0.650263 3.8906709,0.3868 3.8906709,0.3868 1.198466,-0.0075 1.772962,1.64e-4 2.350449,0.01926 L 6.1186967,25.000277 H 5.2875393 L 6.624179,16.102249 C 6.8292617,14.737011 2.6378264,15.717523 1.4182098,15.659447 3.7623259,10.941373 6.6762762,5.2980477 9.8030699,0.26869872 Z"
       id="path7505"
       sodipodi:nodetypes="ccccsscccccccsscccccczccccscc" />
    <path
       style="color:#000000;fill:#1e1e1e;stroke-width:0.999973;stroke-linecap:round;stroke-linejoin:round;-inkscape-stroke:none"
       d="m 8.9808891,-0.41931167 c -0.1313719,-3.4297e-4 -0.2531579,0.0687186 -0.3203031,0.1816353 L -0.3582834,14.553577 c -0.002003,0.0032 -0.003956,0.0065 -0.005859,0.0098 -0.17778703,0.320014 -0.17379011,0.720748 -0.007812,1.052703 0.1726224,0.345245 0.54257705,0.578108 0.9277072,0.578108 H 5.5516995 L 4.1764541,25.84087 c -0.03177,0.223481 0.1414497,0.42342 0.3671768,0.423816 h 1.5233928 c 0.1313717,3.43e-4 0.2531577,-0.06872 0.3203031,-0.181635 L 15.369772,11.254844 c 0.0021,-0.0032 0.004,-0.0065 0.0059,-0.0098 0.180344,-0.32461 0.16429,-0.735708 -0.01758,-1.066374 C 15.171449,9.8392559 14.80383,9.6161853 14.4187,9.6161853 H 9.49693 l 1.374562,-9.60973008 c 0.03308,-0.22420761 -0.14054,-0.4255439 -0.367176,-0.42576877 z M 9.1898673,0.32480714 H 10.074606 L 8.6980917,9.9326185 c -0.033205,0.2249885 0.1417067,0.4267385 0.3691298,0.4257685 h 5.3514065 c 0.159985,0 0.201219,0.02354 0.2871,0.179683 0.09068,0.164892 0.08697,0.224299 0.01953,0.345693 L 5.8560923,25.522521 H 4.9733058 L 6.3485511,15.875803 C 6.3816395,15.651596 6.2080102,15.45026 5.9813745,15.450035 H 0.55575233 c -0.15998543,0 -0.18850742,-0.0157 -0.26366417,-0.166011 -0.0818027,-0.163605 -0.0758527,-0.233377 -0.005859,-0.359365 l -0.007812,0.0098 z"
       id="path7499"
       sodipodi:nodetypes="ccccsscccccccssccccccccsccccccssccc" />
  </g>
</svg>
