<?xml version="1.0" encoding="UTF-8" standalone="no"?>
<svg
   height="26.1168"
   width="18.1168"
   version="1.1"
   id="svg4"
   sodipodi:docname="energy.svg"
   inkscape:version="1.2.1 (9c6d41e410, 2022-07-14, custom)"
   xmlns:inkscape="http://www.inkscape.org/namespaces/inkscape"
   xmlns:sodipodi="http://sodipodi.sourceforge.net/DTD/sodipodi-0.dtd"
   xmlns="http://www.w3.org/2000/svg"
   xmlns:svg="http://www.w3.org/2000/svg">
  <defs
     id="defs8">
    <filter
       inkscape:collect="always"
       style="color-interpolation-filters:sRGB"
       id="filter844"
       x="-0.135"
       y="-0.089999998"
       width="1.27"
       height="1.18">
      <feGaussianBlur
         inkscape:collect="always"
         stdDeviation="0.89999999"
         id="feGaussianBlur846" />
    </filter>
  </defs>
  <sodipodi:namedview
     id="namedview6"
     pagecolor="#ffffff"
     bordercolor="#666666"
     borderopacity="1.0"
     inkscape:showpageshadow="2"
     inkscape:pageopacity="0.0"
     inkscape:pagecheckerboard="true"
     inkscape:deskcolor="#d1d1d1"
     showgrid="false"
     inkscape:zoom="35.606693"
     inkscape:cx="7.3441249"
     inkscape:cy="13.817627"
     inkscape:window-width="1920"
     inkscape:window-height="1055"
     inkscape:window-x="0"
     inkscape:window-y="0"
     inkscape:window-maximized="1"
     inkscape:current-layer="svg4" />
  <path
     style="color:#000000;fill:#1e1e1e;fill-opacity:0.89999998;stroke-width:0.720212;stroke-linecap:round;stroke-linejoin:round;-inkscape-stroke:none;filter:url(#filter844)"
     d="M 5.8675802,25.0584 7.4641496,15.658399 H 1.7788034 q -0.4283481,0 -0.6230513,-0.333333 -0.19470427,-0.333333 0,-0.633332 L 10.69623,1.0584 h 1.59657 l -1.59657,9.366666 h 5.607464 q 0.428349,0 0.642521,0.333334 0.214176,0.333334 0.01946,0.633333 L 7.4641496,25.0584 Z"
     id="path7503" />
  <path
     style="color:#000000;fill:#ffea44;stroke-width:0.720212;stroke-linecap:round;stroke-linejoin:round;-inkscape-stroke:none"
     d="M 5.8675802,25.0584 7.4641496,15.658399 H 1.7788034 q -0.4283481,0 -0.6230513,-0.333333 -0.19470427,-0.333333 0,-0.633332 L 10.69623,1.0584 h 1.59657 l -1.59657,9.366666 h 5.607464 q 0.428349,0 0.642521,0.333334 0.214176,0.333334 0.01946,0.633333 L 7.4641496,25.0584 Z"
     id="path842" />
</svg>
