<?xml version="1.0" encoding="UTF-8" standalone="no"?>
<!-- Generator: Adobe Illustrator 18.0.0, SVG Export Plug-In . SVG Version: 6.00 Build 0)  -->

<svg
   version="1.1"
   id="Capa_1"
   x="0px"
   y="0px"
   viewBox="0 0 16 16.149471"
   xml:space="preserve"
   sodipodi:docname="sound.svg"
   width="16"
   height="16.149471"
   inkscape:version="1.2.1 (9c6d41e410, 2022-07-14, custom)"
   xmlns:inkscape="http://www.inkscape.org/namespaces/inkscape"
   xmlns:sodipodi="http://sodipodi.sourceforge.net/DTD/sodipodi-0.dtd"
   xmlns="http://www.w3.org/2000/svg"
   xmlns:svg="http://www.w3.org/2000/svg"><defs
   id="defs37" /><sodipodi:namedview
   id="namedview35"
   pagecolor="#ffffff"
   bordercolor="#666666"
   borderopacity="1.0"
   inkscape:showpageshadow="2"
   inkscape:pageopacity="0.0"
   inkscape:pagecheckerboard="0"
   inkscape:deskcolor="#d1d1d1"
   showgrid="false"
   inkscape:zoom="25.278206"
   inkscape:cx="9.7119234"
   inkscape:cy="3.7977379"
   inkscape:window-width="1920"
   inkscape:window-height="1055"
   inkscape:window-x="0"
   inkscape:window-y="0"
   inkscape:window-maximized="1"
   inkscape:current-layer="Capa_1" />
<path
   d="M 15.468883,0 H 5.2022463 C 4.9089672,0 4.6712,0.23776713 4.6712,0.53104629 V 5.4626962 10.01001 H 3.0702973 C 1.3773217,10.01001 0,11.386907 0,13.079316 c 0,1.692905 1.3773217,3.070156 3.0702973,3.070156 1.6926215,0 3.0697308,-1.377251 3.0697308,-3.070156 V 3.2656336 H 14.531243 V 10.01001 h -1.600195 c -1.692834,0 -3.070085,1.376897 -3.070085,3.069306 0,1.692905 1.377251,3.070156 3.070085,3.070156 C 14.623245,16.149472 16,14.772221 16,13.079316 V 5.4626962 0.53104629 C 15.999929,0.23776713 15.762162,0 15.468883,0 Z"
   id="path2"
   sodipodi:nodetypes="sssccsssscccssssccs"
   style="stroke-width:0.0708062;fill:#1e1e1e;fill-opacity:1" />
<g
   id="g4"
   transform="translate(-1.056)">
</g>
<g
   id="g6"
   transform="translate(-1.056)">
</g>
<g
   id="g8"
   transform="translate(-1.056)">
</g>
<g
   id="g10"
   transform="translate(-1.056)">
</g>
<g
   id="g12"
   transform="translate(-1.056)">
</g>
<g
   id="g14"
   transform="translate(-1.056)">
</g>
<g
   id="g16"
   transform="translate(-1.056)">
</g>
<g
   id="g18"
   transform="translate(-1.056)">
</g>
<g
   id="g20"
   transform="translate(-1.056)">
</g>
<g
   id="g22"
   transform="translate(-1.056)">
</g>
<g
   id="g24"
   transform="translate(-1.056)">
</g>
<g
   id="g26"
   transform="translate(-1.056)">
</g>
<g
   id="g28"
   transform="translate(-1.056)">
</g>
<g
   id="g30"
   transform="translate(-1.056)">
</g>
<g
   id="g32"
   transform="translate(-1.056)">
</g>
</svg>
