<?xml version="1.0" encoding="UTF-8" standalone="no"?>
<svg
   height="16.018999"
   width="16"
   version="1.1"
   id="svg4"
   sodipodi:docname="text.svg"
   inkscape:version="1.2.1 (9c6d41e410, 2022-07-14, custom)"
   xmlns:inkscape="http://www.inkscape.org/namespaces/inkscape"
   xmlns:sodipodi="http://sodipodi.sourceforge.net/DTD/sodipodi-0.dtd"
   xmlns="http://www.w3.org/2000/svg"
   xmlns:svg="http://www.w3.org/2000/svg">
  <defs
     id="defs8" />
  <sodipodi:namedview
     id="namedview6"
     pagecolor="#ffffff"
     bordercolor="#666666"
     borderopacity="1.0"
     inkscape:showpageshadow="2"
     inkscape:pageopacity="0.0"
     inkscape:pagecheckerboard="0"
     inkscape:deskcolor="#d1d1d1"
     showgrid="false"
     inkscape:zoom="24.38288"
     inkscape:cx="1.7020139"
     inkscape:cy="5.7417335"
     inkscape:window-width="1920"
     inkscape:window-height="1055"
     inkscape:window-x="0"
     inkscape:window-y="0"
     inkscape:window-maximized="1"
     inkscape:current-layer="svg4" />
  <path
     d="m 2.8114735,14.217621 q -0.4103624,0 -0.7181342,-0.307772 Q 1.7855674,13.602076 1.7855674,13.191714 V 2.9326526 q 0,-0.4103624 0.3077719,-0.7181343 Q 2.4011111,1.9067465 2.8114735,1.9067465 H 9.7363394 L 8.7104334,2.9326526 H 2.8114735 V 13.191714 H 13.070534 V 7.241458 L 14.09644,6.2155519 v 6.9761621 q 0,0.410362 -0.307772,0.718135 -0.307772,0.307772 -0.718134,0.307772 z M 7.9410038,8.0621828 Z M 11.052919,2.043534 11.788151,2.7616683 6.9150977,7.6176236 V 9.0880887 H 8.3684646 L 13.258617,4.1979367 13.976751,4.9160709 8.7959255,10.113996 H 5.8891917 V 7.2072611 Z M 13.976751,4.9160709 11.052919,2.043534 12.762762,0.3336905 q 0.290674,-0.29067339 0.726683,-0.29067339 0.436011,0 0.726684,0.30777182 l 1.436269,1.45336687 q 0.290673,0.3077719 0.290673,0.7266837 0,0.4189116 -0.307772,0.709585 z"
     id="path2"
     style="stroke-width:0.341968;fill:#1e1e1e;fill-opacity:1" />
</svg>
