<?xml version="1.0" encoding="UTF-8" standalone="no"?>
<svg
   height="16"
   width="16"
   version="1.1"
   id="svg4"
   sodipodi:docname="video.svg"
   inkscape:version="1.2.1 (9c6d41e410, 2022-07-14, custom)"
   xmlns:inkscape="http://www.inkscape.org/namespaces/inkscape"
   xmlns:sodipodi="http://sodipodi.sourceforge.net/DTD/sodipodi-0.dtd"
   xmlns="http://www.w3.org/2000/svg"
   xmlns:svg="http://www.w3.org/2000/svg">
  <defs
     id="defs8" />
  <sodipodi:namedview
     id="namedview6"
     pagecolor="#ffffff"
     bordercolor="#666666"
     borderopacity="1.0"
     inkscape:showpageshadow="2"
     inkscape:pageopacity="0.0"
     inkscape:pagecheckerboard="0"
     inkscape:deskcolor="#d1d1d1"
     showgrid="false"
     inkscape:zoom="16.208333"
     inkscape:cx="20.143959"
     inkscape:cy="19.989718"
     inkscape:window-width="1920"
     inkscape:window-height="1055"
     inkscape:window-x="0"
     inkscape:window-y="0"
     inkscape:window-maximized="1"
     inkscape:current-layer="svg4" />
  <path
     d="M 6.06,11.4 11.4,8 6.06,4.6 Z M 8,16 Q 6.36,16 4.9,15.37 3.44,14.74 2.35,13.65 1.26,12.56 0.63,11.1 0,9.64 0,8 0,6.34 0.63,4.88 1.26,3.42 2.35,2.34 3.44,1.26 4.9,0.63 6.36,0 8,0 q 1.66,0 3.12,0.63 1.46,0.63 2.54,1.71 1.08,1.08 1.71,2.54 Q 16,6.34 16,8 q 0,1.64 -0.63,3.1 -0.63,1.46 -1.71,2.55 -1.08,1.09 -2.54,1.72 Q 9.66,16 8,16 Z m 0,-1.2 q 2.84,0 4.82,-1.99 Q 14.8,10.82 14.8,8 14.8,5.16 12.82,3.18 10.84,1.2 8,1.2 5.18,1.2 3.19,3.18 1.2,5.16 1.2,8 1.2,10.82 3.19,12.81 5.18,14.8 8,14.8 Z M 8,8 Z"
     id="path2"
     style="stroke-width:0.4;fill:#1e1e1e;fill-opacity:1" />
</svg>
